:SAMPLES-PER-SECOND 30
:FULLY-SPECIFIED
:DEGREES
573
root  0.852757 32.2356 -29.5172 -85.1936 -9.54937 81.1479
Spine  -4.9186 -6.90047 -4.84495
Spine1  -4.53259 9.12954 2.99508
Neck  3.97569e-016 0 -2.38542e-015
Head  12.8546 -7.50528 25.4788
R_Clavicle  0.452356 -11.0334 2.44869
R_UpperArm  55.203 3.65432 50.9304
R_Forearm  19.2131 7.35955 -6.18838
R_Hand  -0.198368 10.0638 -13.7327
L_Clavicle  -0.388208 12.8105 0.970883
L_UpperArm  -27.0821 -12.6234 28.5658
L_Forearm  -12.3989 16.7726 20.3618
L_Hand  -0.134945 1.53154 -2.06299
L_Thigh  -9.39679 -2.12198 -12.2133
L_Calf  8.45821 -2.5783 19.4422
L_Foot  2.77535 6.96081 4.0262
L_Toe0  3.5184 -0.129552 -3.48543
R_Thigh  1.76414 -14.1222 -1.8243
R_Calf  -5.36258 -1.0729 -3.39291
R_Foot  1.23331 3.26607 -3.40929
R_Toe0  -1.78856 -0.272797 -17.3238
574
root  0.669602 32.6324 -30.5531 -86.874 -9.98937 81.1555
Spine  -5.65951 -6.73198 -6.21226
Spine1  -5.35528 10.8623 2.4971
Neck  3.97569e-016 0 -2.38542e-015
Head  16.281 -8.77311 26.1972
R_Clavicle  0.599839 -7.80547 3.52147
R_UpperArm  54.4685 7.73837 48.859
R_Forearm  17.4177 1.69329 -1.43506
R_Hand  0.00151161 8.93213 -11.7596
L_Clavicle  -0.329689 11.2636 0.332491
L_UpperArm  -24.0815 -12.3688 33.1237
L_Forearm  -11.2089 21.811 27.7321
L_Hand  -0.157465 0.691808 -2.82997
L_Thigh  -4.78571 -2.02213 -15.8177
L_Calf  12.3606 -2.90792 21.9562
L_Foot  2.07943 5.93767 2.43471
L_Toe0  5.45969 -0.380017 -1.64843
R_Thigh  -0.36805 -14.7061 -4.4668
R_Calf  -4.0866 2.87114 8.84861
R_Foot  1.13987 2.84624 -3.59727
R_Toe0  -1.78858 -0.272803 -17.324
575
root  0.478762 32.8113 -31.5512 -89.2996 -10.207 81.4969
Spine  -5.67608 -5.49396 -7.76641
Spine1  -5.34989 11.6472 2.46644
Neck  3.97569e-016 0 -2.38542e-015
Head  18.6706 -9.48358 25.9732
R_Clavicle  0.786565 -4.75045 4.48162
R_UpperArm  53.2794 11.211 47.5186
R_Forearm  15.1671 -4.0397 3.33691
R_Hand  0.0744017 7.69474 -10.4008
L_Clavicle  -0.233913 9.99581 -0.856832
L_UpperArm  -18.0597 -13.2564 36.644
L_Forearm  -13.115 27.6164 35.2513
L_Hand  -0.160569 0.859571 -2.77201
L_Thigh  1.06215 -2.11539 -20.2473
L_Calf  14.351 -3.43955 26.3444
L_Foot  2.43278 6.26614 3.44276
L_Toe0  5.17107 -0.392054 -1.40616
R_Thigh  -2.30934 -15.1146 -7.01963
R_Calf  -2.49673 7.08016 22.5324
R_Foot  1.00761 2.44695 -3.23744
R_Toe0  -1.7886 -0.272809 -17.3242
576
root  0.362997 32.7087 -32.4583 -92.3713 -9.46563 81.944
Spine  -5.36251 -4.07464 -9.27043
Spine1  -5.09929 11.9114 1.35686
Neck  3.97569e-016 0 -2.38542e-015
Head  20.7092 -9.31958 25.8033
R_Clavicle  0.888892 -1.9983 4.7449
R_UpperArm  50.0871 14.4448 46.9954
R_Forearm  13.5013 -10.4178 8.78442
R_Hand  0.0483909 6.6723 -9.82895
L_Clavicle  -0.116779 8.37524 -1.71401
L_UpperArm  -19.7079 -13.6275 39.5983
L_Forearm  -7.21856 36.2236 40.3837
L_Hand  -0.0496104 1.12471 -0.808848
L_Thigh  3.77405 -2.29166 -24.0662
L_Calf  13.2266 -3.81759 31.2919
L_Foot  3.65547 7.78944 6.32925
L_Toe0  3.25234 -0.178829 -2.47955
R_Thigh  -5.02627 -14.8277 -7.14361
R_Calf  -3.08893 10.0042 33.1235
R_Foot  1.63358 4.38583 -5.14355
R_Toe0  -1.78862 -0.272817 -17.3244
577
root  0.38862 32.3602 -33.2148 -96.0061 -8.16735 82.6405
Spine  -4.74757 -3.36712 -9.26527
Spine1  -4.77382 13.3472 -1.36112
Neck  3.97569e-016 0 -2.38542e-015
Head  23.1635 -9.77717 25.1592
R_Clavicle  0.887084 -0.441756 4.56445
R_UpperArm  42.6049 19.6615 46.5593
R_Forearm  12.9207 -18.1437 15.7483
R_Hand  -0.0228914 5.77839 -9.69014
L_Clavicle  -0.0639344 7.55351 -1.93963
L_UpperArm  -24.3786 -12.1432 42.8831
L_Forearm  3.83152 41.801 45.1643
L_Hand  0.038656 0.355981 0.671807
L_Thigh  3.09475 -2.4888 -26.3027
L_Calf  9.24099 -3.9598 34.2893
L_Foot  5.24895 9.29459 10.2904
L_Toe0  0.33089 0.0183633 -3.69435
R_Thigh  -10.0517 -12.4 -2.79687
R_Calf  -5.85696 9.78306 32.4741
R_Foot  2.373 6.41332 -9.28412
R_Toe0  -1.78865 -0.272825 -17.3247
578
root  0.555934 31.872 -33.7868 -99.4199 -7.03409 83.7034
Spine  -3.84423 -3.49649 -7.31028
Spine1  -4.15162 16.7848 -3.45725
Neck  3.97569e-016 0 -2.38542e-015
Head  26.286 -12.0104 22.0412
R_Clavicle  0.838408 -1.11886 4.3766
R_UpperArm  35.8354 27.3501 46.0535
R_Forearm  11.3151 -27.262 21.9435
R_Hand  -0.117767 4.99525 -9.85972
L_Clavicle  -0.142738 9.11401 -1.84284
L_UpperArm  -26.0872 -9.45156 46.213
L_Forearm  10.4189 42.1925 47.8563
L_Hand  -0.0612732 -2.5367 -1.9505
L_Thigh  4.25091 -2.67093 -25.897
L_Calf  3.26023 -3.9222 31.6348
L_Foot  5.71043 6.78457 14.9323
L_Toe0  0.404379 0.0287222 -5.44384
R_Thigh  -13.8781 -8.84981 0.688993
R_Calf  -8.3148 8.39758 27.4385
R_Foot  2.21902 6.08653 -7.90061
R_Toe0  -1.78868 -0.272833 -17.325
579
root  0.843888 31.3628 -34.2365 -100.954 -6.15462 84.6001
Spine  -3.16097 -3.35241 -5.03075
Spine1  -3.2838 19.93 -2.42662
Neck  3.97569e-016 0 -2.38542e-015
Head  29.0422 -14.4384 15.8549
R_Clavicle  0.708304 -3.18766 3.84111
R_UpperArm  42.9327 32.8088 46.0367
R_Forearm  2.9874 -37.4607 24.5331
R_Hand  -0.204571 4.53456 -10.2804
L_Clavicle  -0.254862 11.7524 -1.92762
L_UpperArm  -27.1558 -6.50966 47.607
L_Forearm  13.3 41.4933 48.8072
L_Hand  0.168295 -7.78982 -9.30699
L_Thigh  7.92468 -3.30962 -23.1391
L_Calf  -2.15915 -3.19603 23.7574
L_Foot  5.32531 3.75499 17.8492
L_Toe0  0.22492 0.0079622 -3.28108
R_Thigh  -14.6721 -6.32461 2.93429
R_Calf  -10.1787 6.60361 21.2306
R_Foot  1.91592 6.03202 -2.74743
R_Toe0  -1.7887 -0.272841 -17.3252
580
root  1.19255 31.0156 -34.6729 -99.9487 -5.2403 85.582
Spine  -2.90712 -0.317624 -3.62179
Spine1  -2.64876 19.6424 0.731745
Neck  3.97569e-016 0 -2.38542e-015
Head  29.3058 -15.0188 9.2755
R_Clavicle  0.504544 -4.89864 2.68151
R_UpperArm  47.9489 30.9082 46.2276
R_Forearm  0.81861 -40.9388 29.1554
R_Hand  -0.214712 4.16088 -10.0277
L_Clavicle  -0.265955 12.5616 -2.83616
L_UpperArm  -26.2028 -3.46574 46.1091
L_Forearm  13.2484 41.9292 49.3193
L_Hand  1.16156 -12.8472 -16.9182
L_Thigh  11.0653 -3.80103 -17.8196
L_Calf  -3.83685 -1.63792 11.7903
L_Foot  3.76782 1.76237 14.5829
L_Toe0  -0.753355 0.0754772 6.98123
R_Thigh  -14.0408 -4.45957 3.62151
R_Calf  -9.66667 5.43136 17.3783
R_Foot  1.78804 6.25927 0.670698
R_Toe0  -1.78873 -0.272849 -17.3255
581
root  1.61121 30.7498 -35.2129 -97.9835 -4.57457 87.1544
Spine  -2.42452 5.67749 -2.69506
Spine1  -2.36697 15.8142 3.34841
Neck  3.97569e-016 0 -2.38542e-015
Head  26.5992 -14.2226 4.92739
R_Clavicle  0.332096 -6.86534 1.49559
R_UpperArm  50.9735 23.6991 46.2245
R_Forearm  3.36249 -40.0106 30.5579
R_Hand  -0.123849 3.24288 -8.05905
L_Clavicle  -0.146267 11.2774 -4.00619
L_UpperArm  -23.6856 -0.0139893 43.3276
L_Forearm  11.1466 42.1585 47.5559
L_Hand  1.26783 -13.3445 -17.9035
L_Thigh  12.0459 -3.62708 -10.4272
L_Calf  -3.63797 0.30143 -2.55468
L_Foot  1.5425 2.82941 4.04286
L_Toe0  -4.10752 1.37336 20.7004
R_Thigh  -13.3916 -2.02606 3.13998
R_Calf  -7.74402 4.57508 14.7249
R_Foot  1.83917 6.89133 3.41683
R_Toe0  -1.78875 -0.272856 -17.3257
582
root  2.14784 30.3524 -35.9061 -97.1502 -4.84954 88.8764
Spine  -1.11191 10.8447 -1.39058
Spine1  -1.61391 11.6483 4.88105
Neck  3.97569e-016 0 -2.38542e-015
Head  23.7204 -13.7668 2.17838
R_Clavicle  0.267289 -10.2833 0.71167
R_UpperArm  47.7847 17.6888 46.4037
R_Forearm  9.64534 -36.4643 26.6338
R_Hand  -0.126496 1.6201 -5.59855
L_Clavicle  -0.0900073 10.6012 -4.26263
L_UpperArm  -20.1792 4.26117 41.063
L_Forearm  6.48891 38.7452 42.5934
L_Hand  0.248466 -8.09782 -11.8137
L_Thigh  9.65329 -2.95721 -3.60238
L_Calf  -6.84923 2.0803 -15.7561
L_Foot  1.12285 9.21183 -4.13976
L_Toe0  -11.2868 3.7772 14.0185
R_Thigh  -12.1585 0.479073 2.26202
R_Calf  -7.02332 3.41769 11.164
R_Foot  1.683 6.97974 6.98574
R_Toe0  -1.78877 -0.272862 -17.3259
583
root  2.75353 29.9907 -36.7396 -97.3303 -5.95697 90.3697
Spine  0.437995 12.3629 -0.0587534
Spine1  -0.175236 10.6445 6.41948
Neck  3.97569e-016 0 -2.38542e-015
Head  23.5728 -14.1645 -0.468839
R_Clavicle  0.288078 -13.8484 0.397914
R_UpperArm  33.1297 15.2387 45.7404
R_Forearm  21.0863 -27.8652 20.6581
R_Hand  -0.333173 0.0976496 -5.59184
L_Clavicle  -0.234275 12.2383 -3.29231
L_UpperArm  -14.3086 9.76005 39.6839
L_Forearm  -1.00197 31.3356 37.6681
L_Hand  -0.14402 -1.49865 -4.44214
L_Thigh  5.24134 -1.13844 1.36245
L_Calf  -11.1317 3.28086 -25.1006
L_Foot  1.41522 12.3647 -5.25492
L_Toe0  -11.9153 1.67439 -0.26627
R_Thigh  -9.58234 2.05615 0.597909
R_Calf  -7.79252 2.40565 8.01688
R_Foot  1.12337 6.03875 10.6188
R_Toe0  -1.78879 -0.272867 -17.3261
584
root  3.32744 29.9444 -37.7363 -96.566 -7.14499 91.2189
Spine  0.948891 10.8126 -0.00477802
Spine1  0.901911 12.575 7.85013
Neck  3.97569e-016 0 -2.38542e-015
Head  25.4879 -14.5196 -2.16132
R_Clavicle  0.327369 -16.0474 0.480304
R_UpperArm  20.9423 13.7273 42.5331
R_Forearm  26.3184 -16.6233 14.7648
R_Hand  -0.502913 0.0848148 -8.42965
L_Clavicle  -0.41195 15.1152 -1.85265
L_UpperArm  -11.3824 16.0163 38.6578
L_Forearm  -2.89943 26.4961 34.9705
L_Hand  -0.00736221 2.4568 -0.212763
L_Thigh  1.60777 0.451341 4.51488
L_Calf  -12.4342 3.76823 -29.0985
L_Foot  2.5572 11.8219 -1.06041
L_Toe0  -0.639204 -0.073209 -5.4722
R_Thigh  -6.93137 2.62514 -2.5246
R_Calf  -7.90985 2.16157 7.23291
R_Foot  0.570903 5.11556 13.2524
R_Toe0  -1.7888 -0.272871 -17.3262
585
root  3.79304 30.2629 -38.8583 -94.1533 -7.61054 91.3019
Spine  0.511336 8.88179 -1.31167
Spine1  0.912262 14.0867 7.73697
Neck  3.97569e-016 0 -2.38542e-015
Head  25.9691 -14.2813 -0.965628
R_Clavicle  0.363704 -17.5266 0.794415
R_UpperArm  18.1913 10.9307 37.3014
R_Forearm  23.0131 -8.31621 6.94835
R_Hand  -0.602001 1.30622 -11.6134
L_Clavicle  -0.505801 17.4783 -0.800319
L_UpperArm  -7.72603 21.4778 37.6217
L_Forearm  0.0809041 26.4337 34.6382
L_Hand  0.00811065 3.27296 0.234898
L_Thigh  -0.347875 0.592573 7.04531
L_Calf  -9.50927 3.56965 -27.4818
L_Foot  3.16183 10.7625 1.78149
L_Toe0  0.680528 0.0307181 -6.23711
R_Thigh  -5.22982 2.73542 -6.66929
R_Calf  -6.52369 2.83848 9.3476
R_Foot  0.375841 4.88546 14.5283
R_Toe0  -1.78881 -0.272874 -17.3263
586
root  4.14586 30.8321 -39.9819 -91.7011 -7.01498 90.7949
Spine  0.440452 8.39656 -3.29052
Spine1  0.592776 12.3357 6.03513
Neck  3.97569e-016 0 -2.38542e-015
Head  22.7354 -13.6573 2.76237
R_Clavicle  0.391906 -19.2418 1.04706
R_UpperArm  15.3645 7.74013 31.6969
R_Forearm  19.2387 -2.03702 1.66606
R_Hand  -0.654447 2.8128 -13.6803
L_Clavicle  -0.543531 18.7288 -0.443718
L_UpperArm  -1.39604 25.1923 36.8767
L_Forearm  4.97967 28.3921 35.843
L_Hand  0.016499 2.38701 0.315068
L_Thigh  -2.27982 -0.0540835 9.40266
L_Calf  -5.50879 2.7547 -20.972
L_Foot  3.15427 11.0761 1.49819
L_Toe0  0.505155 0.0344545 -6.1361
R_Thigh  -4.26672 2.45767 -10.6698
R_Calf  -4.85117 4.26528 13.8596
R_Foot  0.258507 4.57978 14.3289
R_Toe0  -1.78881 -0.272874 -17.3263
587
root  4.40204 31.4493 -41.0281 -90.7459 -5.79958 90.5981
Spine  1.60744 10.0836 -5.36888
Spine1  1.22832 7.49169 4.36468
Neck  3.97569e-016 0 -2.38542e-015
Head  16.7212 -12.7371 6.68253
R_Clavicle  0.401418 -20.0654 1.09851
R_UpperArm  14.2686 5.65958 25.4544
R_Forearm  14.7418 0.482361 -0.428694
R_Hand  -0.705755 4.70939 -15.4088
L_Clavicle  -0.574288 19.2725 -0.846101
L_UpperArm  2.00275 27.5119 37.0328
L_Forearm  11.5366 30.7324 36.429
L_Hand  0.16945 2.6985 2.52947
L_Thigh  -4.76099 0.270799 10.8131
L_Calf  -1.94371 1.38498 -10.6024
L_Foot  2.95098 10.9745 0.903091
L_Toe0  0.505141 0.0346446 -6.13611
R_Thigh  -2.84187 1.99027 -14.0502
R_Calf  -4.68914 6.06995 19.6838
R_Foot  -0.163991 3.33716 13.073
R_Toe0  -1.7888 -0.272873 -17.3262
